<svg width="396" height="122" viewBox="0 0 396 122" fill="none" xmlns="http://www.w3.org/2000/svg">
<path d="M23.4844 11.6159C38.3005 11.6159 46.8794 16.3521 57.356 26.8287C67.8326 37.3053 73.7183 51.5146 73.7183 66.3307C73.7183 81.1469 67.8326 95.3562 57.356 105.833C46.8794 116.309 38.3013 121.193 23.4852 121.193L23.4844 102.327C33.1557 102.327 36.8005 98.9546 43.6391 92.116C50.4778 85.2773 54.3197 76.0021 54.3197 66.3307C54.3197 56.6594 50.4778 47.3842 43.6391 40.5456C36.8005 33.7069 33.1557 31.2833 23.4844 31.2833L23.4844 11.6159Z" fill="#8A5CF6"/>
<circle cx="65.4505" cy="10.4681" r="9.63311" fill="#8A5CF6"/>
<path fill-rule="evenodd" clip-rule="evenodd" d="M36.3078 64.8973H19.0691V75.5716H33.4191C30.2081 80.4984 24.6494 83.7552 18.33 83.7552C8.39 83.7552 0.332031 75.6973 0.332031 65.7573C0.332031 55.8172 8.39 47.7593 18.33 47.7593C27.9817 47.7593 35.859 55.3566 36.3078 64.8973Z" fill="#8A5CF6"/>
<rect x="19.0693" y="54.9043" width="39.3464" height="9.99271" fill="#8A5CF6"/>
<path d="M120.524 99.955C114.817 99.955 109.937 98.6216 105.884 95.955C101.884 93.235 98.8173 89.4483 96.684 84.595C94.5507 79.6883 93.484 73.9816 93.484 67.475C93.484 60.8616 94.5773 55.155 96.764 50.355C99.004 45.555 102.257 41.8483 106.524 39.235C110.844 36.6216 116.151 35.315 122.444 35.315C127.884 35.315 132.444 36.2483 136.124 38.115C139.804 39.9816 142.684 42.5683 144.764 45.875C146.844 49.1283 148.177 52.915 148.764 57.235H135.964C135.324 53.395 133.857 50.4616 131.564 48.435C129.271 46.4083 126.177 45.395 122.284 45.395C117.111 45.395 113.244 47.3416 110.684 51.235C108.177 55.075 106.924 60.515 106.924 67.555C106.924 74.755 108.231 80.3016 110.844 84.195C113.511 88.0883 117.431 90.035 122.604 90.035C126.924 90.035 130.257 88.7816 132.604 86.275C134.951 83.715 136.257 80.275 136.524 75.955H118.924V66.275H148.844V98.835H139.164V91.635H137.244C136.177 93.7683 134.337 95.6883 131.724 97.395C129.164 99.1016 125.431 99.955 120.524 99.955ZM175.761 99.795C171.281 99.795 167.601 98.7283 164.721 96.595C161.841 94.4083 159.708 91.4216 158.321 87.635C156.935 83.8483 156.241 79.555 156.241 74.755C156.241 69.795 156.935 65.4483 158.321 61.715C159.761 57.9816 161.921 55.075 164.801 52.995C167.681 50.915 171.308 49.875 175.681 49.875C179.041 49.875 181.788 50.5416 183.921 51.875C186.108 53.155 187.761 54.8883 188.881 57.075H190.801V50.835H202.801V98.835H190.801V92.595H188.881C187.761 94.6216 186.135 96.3283 184.001 97.715C181.868 99.1016 179.121 99.795 175.761 99.795ZM179.121 90.675C182.375 90.675 184.961 89.2616 186.881 86.435C188.855 83.555 189.841 79.6883 189.841 74.835C189.841 69.9283 188.855 66.0616 186.881 63.235C184.961 60.4083 182.375 58.995 179.121 58.995C176.188 58.995 173.868 60.3283 172.161 62.995C170.508 65.6083 169.681 69.555 169.681 74.835C169.681 80.115 170.508 84.0883 172.161 86.755C173.868 89.3683 176.188 90.675 179.121 90.675ZM218.58 98.835C217.087 97.1283 216.02 95.2083 215.38 93.075C214.794 90.8883 214.5 88.035 214.5 84.515V34.835H227.46V83.155C227.46 87.2083 227.914 90.3816 228.82 92.675C229.727 94.915 230.927 96.8083 232.42 98.355V98.835H218.58ZM243.705 98.835C242.212 97.1283 241.145 95.2083 240.505 93.075C239.919 90.8883 239.625 88.035 239.625 84.515V34.835H252.585V83.155C252.585 87.2083 253.039 90.3816 253.945 92.675C254.852 94.915 256.052 96.8083 257.545 98.355V98.835H243.705ZM284.99 100.035C277.417 100.035 271.63 97.7683 267.63 93.235C263.684 88.7016 261.71 82.5416 261.71 74.755C261.71 69.5283 262.59 65.0483 264.35 61.315C266.164 57.5816 268.777 54.7016 272.19 52.675C275.657 50.6483 279.87 49.635 284.83 49.635C291.977 49.635 297.444 51.795 301.23 56.115C305.07 60.435 306.99 66.7816 306.99 75.155V77.875H274.35C274.617 81.9283 275.657 85.1283 277.47 87.475C279.337 89.7683 281.844 90.915 284.99 90.915C287.497 90.915 289.497 90.1683 290.99 88.675C292.537 87.1816 293.55 85.4483 294.03 83.475H306.35C305.87 86.4083 304.804 89.1283 303.15 91.635C301.497 94.1416 299.177 96.1683 296.19 97.715C293.204 99.2616 289.47 100.035 284.99 100.035ZM274.35 69.715H294.35C294.137 66.0883 293.23 63.2883 291.63 61.315C290.03 59.2883 287.737 58.275 284.75 58.275C281.817 58.275 279.444 59.235 277.63 61.155C275.87 63.0216 274.777 65.875 274.35 69.715ZM315.188 98.835V50.835H327.028V59.635H328.948C329.268 58.035 329.854 56.5416 330.708 55.155C331.614 53.715 332.974 52.5683 334.788 51.715C336.601 50.8083 339.028 50.355 342.068 50.355H344.628V62.035H341.108C336.574 62.035 333.268 63.1816 331.188 65.475C329.161 67.7683 328.148 71.2083 328.148 75.795V98.835H315.188ZM355.901 114.835V114.675C357.235 112.488 358.675 109.955 360.221 107.075C361.768 104.195 363.128 101.448 364.301 98.835L347.821 51.315V50.835H360.621L365.581 65.235C366.381 67.5283 367.181 69.9816 367.981 72.595C368.781 75.2083 369.581 78.515 370.381 82.515H372.301C373.101 78.515 373.901 75.2083 374.701 72.595C375.501 69.9816 376.301 67.5283 377.101 65.235L382.061 50.835H394.221V51.315L379.501 92.275C377.581 97.6616 375.715 102.248 373.901 106.035C372.141 109.875 370.648 112.808 369.421 114.835H355.901Z" fill="#1F2937"/>
</svg>
